<svg xmlns="http://www.w3.org/2000/svg" xmlns:xlink="http://www.w3.org/1999/xlink" width="330" height="150" class="marks" version="1.1" viewBox="0 0 330 150"><g><g class="mark-group role-frame root"><g><path fill="none" stroke="#ddd" d="M0.5,0.5h200v105h-200Z" class="background" transform="translate(124,5) translate(0,0)"/><g><g class="mark-group role-axis"><g><path fill="none" d="M0,0h0v0h0Z" class="background" pointer-events="none" transform="translate(124,5) translate(0,0) translate(0.5,105.5)"/><g><g class="mark-rule role-axis-grid" pointer-events="none" transform="translate(124,5) translate(0,0) translate(0.5,105.5)"><line x2="0" y2="-105" fill="none" stroke="#ddd" stroke-width="1" opacity="1" transform="translate(0,0)"/><line x2="0" y2="-105" fill="none" stroke="#ddd" stroke-width="1" opacity="1" transform="translate(50,0)"/><line x2="0" y2="-105" fill="none" stroke="#ddd" stroke-width="1" opacity="1" transform="translate(100,0)"/><line x2="0" y2="-105" fill="none" stroke="#ddd" stroke-width="1" opacity="1" transform="translate(150,0)"/><line x2="0" y2="-105" fill="none" stroke="#ddd" stroke-width="1" opacity="1" transform="translate(200,0)"/></g></g></g></g><g class="mark-rect role-mark marks"><path fill="#4c78a8" d="M0,85.05h167.5v18.900000000000002h-167.5Z" transform="translate(124,5) translate(0,0)"/><path fill="#4c78a8" d="M0,1.0499999999999972h200v18.900000000000002h-200Z" transform="translate(124,5) translate(0,0)"/><path fill="#4c78a8" d="M0,22.049999999999997h82.5v18.900000000000002h-82.5Z" transform="translate(124,5) translate(0,0)"/><path fill="#4c78a8" d="M0,64.05h63v18.900000000000002h-63Z" transform="translate(124,5) translate(0,0)"/><path fill="#4c78a8" d="M0,43.05h8.5v18.900000000000002h-8.5Z" transform="translate(124,5) translate(0,0)"/></g><g class="mark-group role-axis"><g><path fill="none" d="M0,0h0v0h0Z" class="background" pointer-events="none" transform="translate(124,5) translate(0,0) translate(0.5,105.5)"/><g><g class="mark-rule role-axis-tick" pointer-events="none" transform="translate(124,5) translate(0,0) translate(0.5,105.5)"><line x2="0" y2="5" fill="none" stroke="#888" stroke-width="1" opacity="1" transform="translate(0,0)"/><line x2="0" y2="5" fill="none" stroke="#888" stroke-width="1" opacity="1" transform="translate(50,0)"/><line x2="0" y2="5" fill="none" stroke="#888" stroke-width="1" opacity="1" transform="translate(100,0)"/><line x2="0" y2="5" fill="none" stroke="#888" stroke-width="1" opacity="1" transform="translate(150,0)"/><line x2="0" y2="5" fill="none" stroke="#888" stroke-width="1" opacity="1" transform="translate(200,0)"/></g><g class="mark-text role-axis-label" pointer-events="none"><text style="font:10px sans-serif" fill="#000" opacity="1" text-anchor="start" transform="translate(124,5) translate(0,0) translate(0.5,105.5) translate(0,15)">0</text><text style="font:10px sans-serif" fill="#000" opacity="1" text-anchor="middle" transform="translate(124,5) translate(0,0) translate(0.5,105.5) translate(50,15)">100</text><text style="font:10px sans-serif" fill="#000" opacity="1" text-anchor="middle" transform="translate(124,5) translate(0,0) translate(0.5,105.5) translate(100,15)">200</text><text style="font:10px sans-serif" fill="#000" opacity="1" text-anchor="middle" transform="translate(124,5) translate(0,0) translate(0.5,105.5) translate(150,15)">300</text><text style="font:10px sans-serif" fill="#000" opacity="1" text-anchor="end" transform="translate(124,5) translate(0,0) translate(0.5,105.5) translate(200,15)">400</text></g><g class="mark-rule role-axis-domain" pointer-events="none" transform="translate(124,5) translate(0,0) translate(0.5,105.5)"><line x2="200" y2="0" fill="none" stroke="#888" stroke-width="1" opacity="1" transform="translate(0,0)"/></g><g class="mark-text role-axis-title" pointer-events="none"><text style="font:700 11px sans-serif" fill="#000" opacity="1" text-anchor="middle" transform="translate(124,5) translate(0,0) translate(0.5,105.5) translate(100,31)">Number of Records</text></g></g></g></g><g class="mark-group role-axis"><g><path fill="none" d="M0,0h0v0h0Z" class="background" pointer-events="none" transform="translate(124,5) translate(0,0) translate(0.5,0.5)"/><g><g class="mark-rule role-axis-tick" pointer-events="none" transform="translate(124,5) translate(0,0) translate(0.5,0.5)"><line x2="-5" y2="0" fill="none" stroke="#888" stroke-width="1" opacity="1" transform="translate(0,9)"/><line x2="-5" y2="0" fill="none" stroke="#888" stroke-width="1" opacity="1" transform="translate(0,31)"/><line x2="-5" y2="0" fill="none" stroke="#888" stroke-width="1" opacity="1" transform="translate(0,52)"/><line x2="-5" y2="0" fill="none" stroke="#888" stroke-width="1" opacity="1" transform="translate(0,73)"/><line x2="-5" y2="0" fill="none" stroke="#888" stroke-width="1" opacity="1" transform="translate(0,94)"/></g><g class="mark-text role-axis-label" pointer-events="none"><text style="font:10px sans-serif" fill="#000" opacity="1" text-anchor="end" transform="translate(124,5) translate(0,0) translate(0.5,0.5) translate(-7,12.499999999999998)">1-2 years</text><text style="font:10px sans-serif" fill="#000" opacity="1" text-anchor="end" transform="translate(124,5) translate(0,0) translate(0.5,0.5) translate(-7,33.5)">3-5 years</text><text style="font:10px sans-serif" fill="#000" opacity="1" text-anchor="end" transform="translate(124,5) translate(0,0) translate(0.5,0.5) translate(-7,54.5)">Forever</text><text style="font:10px sans-serif" fill="#000" opacity="1" text-anchor="end" transform="translate(124,5) translate(0,0) translate(0.5,0.5) translate(-7,75.5)">I don&apos;t currently use Rust</text><text style="font:10px sans-serif" fill="#000" opacity="1" text-anchor="end" transform="translate(124,5) translate(0,0) translate(0.5,0.5) translate(-7,96.5)">Less than a year</text></g><g class="mark-rule role-axis-domain" pointer-events="none" transform="translate(124,5) translate(0,0) translate(0.5,0.5)"><line x2="0" y2="105" fill="none" stroke="#888" stroke-width="1" opacity="1" transform="translate(0,0)"/></g></g></g></g></g></g></g></g></svg>